Coordinates
version=1
nRows=24
nColumns=24
inDegrees=yes

Units are S.I. units (second, meters, Newtons, ...)
Angles are in degrees.

endheader
time	pelvis_tilt	pelvis_list	pelvis_rotation	pelvis_tx	pelvis_ty	pelvis_tz	hip_flexion_r	hip_adduction_r	hip_rotation_r	knee_angle_r	ankle_angle_r	subtalar_angle_r	mtp_angle_r	hip_flexion_l	hip_adduction_l	hip_rotation_l	knee_angle_l	ankle_angle_l	subtalar_angle_l	mtp_angle_l	lumbar_extension	lumbar_bending	lumbar_rotation
      2.73000000	    -11.96622568	      8.06681143	     -2.52976140	     -2.30862181	     -0.03220565	     -0.29045704	     18.87421586	    -14.03203924	     -7.12253317	    -62.43834416	    -24.28137502	    -20.02583840	     12.93919755	     28.57122570	      8.66988418	     -5.85888956	    -23.79139930	      1.16740095	    -13.50637132	     -7.93847918	      8.90682149	     -9.12336176	      4.11091472
      2.73500000	    -11.90538864	      7.79727775	     -2.42649160	     -2.30159493	     -0.03072802	     -0.29114272	     19.73862215	    -13.65258232	     -7.06934061	    -62.99607814	    -23.18007435	    -19.77290123	     13.43020743	     27.84216265	      8.55694331	     -5.58267075	    -23.48811756	      1.46222362	    -13.40771370	     -7.81175558	      8.75769206	     -8.84478940	      3.86769217
      2.74000000	    -11.82660045	      7.60429022	     -2.33298281	     -2.29449967	     -0.02925473	     -0.29194199	     20.55105291	    -13.37986093	     -6.95882966	    -63.36680717	    -22.52277997	    -19.55915882	     16.60494968	     27.05551047	      8.54058663	     -5.26831731	    -23.09682770	      1.65523718	    -13.46141679	     -7.69881222	      8.61392945	     -8.62424888	      3.67670041
      2.74500000	    -11.75571630	      7.35688810	     -2.24454418	     -2.28749127	     -0.02780821	     -0.29260375	     21.38126824	    -13.02989442	     -6.91692821	    -63.75220585	    -21.41586980	    -19.01320789	     17.16403076	     26.29926907	      8.43241952	     -5.03010260	    -22.75072300	      1.96373620	    -13.33177495	     -7.65491266	      8.46708145	     -8.35873220	      3.47986904
      2.75000000	    -11.64383223	      7.19155497	     -2.21190110	     -2.28049836	     -0.02632155	     -0.29330346	     22.17182301	    -12.75688198	     -6.76611182	    -64.01758889	    -20.49562558	    -18.41439849	     18.97121455	     25.46250123	      8.41782710	     -4.76539684	    -22.30255251	      2.09780354	    -13.48768399	     -7.90303554	      8.28823888	     -8.15337134	      3.36158109
      2.75500000	    -11.58962468	      6.88894051	     -2.02950432	     -2.27345928	     -0.02492505	     -0.29401109	     22.92240836	    -12.37878871	     -6.86706739	    -64.17833393	    -19.52176465	    -17.84689841	     19.80449954	     24.71869199	      8.26620596	     -4.48413031	    -21.96309628	      2.49469170	    -13.18191551	     -7.86104434	      8.15620222	     -7.84930599	      3.07081553
      2.76000000	    -11.48727760	      6.63739498	     -1.92164320	     -2.26653063	     -0.02347026	     -0.29477979	     23.61438167	    -12.02954139	     -6.81503169	    -64.12832908	    -19.11592368	    -17.58046189	     23.69355058	     23.90482302	      8.17348930	     -4.17553176	    -21.55300446	      2.75840784	    -13.17963749	     -8.39587894	      7.96684468	     -7.56456782	      2.85241381
      2.76500000	    -11.42843385	      6.36205818	     -1.79998674	     -2.25955386	     -0.02210955	     -0.29537349	     24.35475039	    -11.63889840	     -6.84561062	    -64.14078503	    -18.11707168	    -16.92560486	     24.15757661	     23.14266433	      8.01032836	     -4.00422281	    -21.14619544	      3.01152342	    -12.99236410	     -8.35859690	      7.83832481	     -7.27626249	      2.62662689
      2.77000000	    -11.32327259	      6.14580193	     -1.65094192	     -2.25258752	     -0.02078101	     -0.29615147	     25.00534953	    -11.35169294	     -6.87138850	    -63.98465497	    -17.46981839	    -16.50353528	     26.83723230	     22.30447373	      7.95178364	     -3.70304545	    -20.68411613	      3.24745179	    -12.96167445	     -8.65608096	      7.65599844	     -7.03653311	      2.40010933
      2.77500000	    -11.25703580	      5.90698931	     -1.51139827	     -2.24568311	     -0.01956373	     -0.29676960	     25.70839738	    -11.00910297	     -6.91602691	    -63.85390468	    -16.49386957	    -15.87960797	     27.33145243	     21.53515519	      7.82499373	     -3.51556272	    -20.25985716	      3.49469999	    -12.77547878	     -8.61668921	      7.51278927	     -6.78683840	      2.17921416
      2.78000000	    -11.14033408	      5.68832045	     -1.37700852	     -2.23873593	     -0.01831495	     -0.29746422	     26.31831832	    -10.69817719	     -6.94866855	    -63.59360393	    -15.63224944	    -15.32333347	     28.52715214	     20.68255936	      7.73700509	     -3.29780254	    -19.76706203	      3.62015307	    -12.79704169	     -8.70098584	      7.32546689	     -6.54480350	      1.97179934
      2.78500000	    -11.07191780	      5.43126230	     -1.19161343	     -2.23186409	     -0.01720487	     -0.29815671	     26.94692431	    -10.35732698	     -7.04021056	    -63.24742410	    -14.84546796	    -14.89236644	     29.82005970	     19.91422513	      7.60220112	     -3.06758125	    -19.33588223	      3.84805358	    -12.66191208	     -8.75118875	      7.17082855	     -6.27622640	      1.69967578
      2.79000000	    -11.08315312	      5.12552887	     -0.95323454	     -2.22505888	     -0.01625764	     -0.29883453	     27.63820568	     -9.97467118	     -7.21570991	    -62.85560418	    -14.05228712	    -14.56010082	     30.18984416	     19.27379751	      7.41077168	     -2.82850078	    -18.97630110	      4.10605482	    -12.46092721	     -8.70099426	      7.09031016	     -5.97087547	      1.35546387
      2.79500000	    -11.03232006	      4.88227696	     -0.73081275	     -2.21819668	     -0.01533750	     -0.29955210	     28.24548723	     -9.67537844	     -7.36171512	    -62.39608497	    -13.21243161	    -14.14483268	     30.67634988	     18.53735882	      7.29078724	     -2.57181478	    -18.55525875	      4.31131962	    -12.36771830	     -8.69512910	      6.95959582	     -5.72018066	      1.06970967
      2.80000000	    -10.92397682	      4.66508856	     -0.55476045	     -2.21136708	     -0.01439203	     -0.30023980	     28.77757810	     -9.37903808	     -7.43012954	    -61.82297471	    -12.56856914	    -13.86663653	     31.82005842	     17.71687135	      7.19641372	     -2.25720009	    -18.08274065	      4.42432210	    -12.44649016	     -8.88525691	      6.76694114	     -5.48410352	      0.81216096
      2.80500000	    -10.97033099	      4.39432920	     -0.31145947	     -2.20461614	     -0.01373685	     -0.30087286	     29.45919793	     -9.04391007	     -7.59156352	    -61.22540901	    -11.90353201	    -13.65504079	     32.06926432	     17.13688690	      7.02220196	     -2.02455650	    -17.73991978	      4.67530260	    -12.27562486	     -8.86396783	      6.72713879	     -5.21445930	      0.46821280
      2.81000000	    -10.95276533	      4.16609598	     -0.07341488	     -2.19782273	     -0.01308870	     -0.30154950	     30.04716911	     -8.77075800	     -7.73910818	    -60.55557880	    -11.26759637	    -13.41988093	     32.32363305	     16.46208661	      6.90142041	     -1.74882988	    -17.34538863	      4.86556281	    -12.21782939	     -8.89683753	      6.62850696	     -4.98026637	      0.15755272
      2.81500000	    -10.94073482	      3.94992144	      0.15507466	     -2.19106324	     -0.01251746	     -0.30217726	     30.62818160	     -8.50398578	     -7.86558861	    -59.81828913	    -10.73512054	    -13.25027429	     32.52314221	     15.79870931	      6.78251001	     -1.47799859	    -16.95213774	      5.03650750	    -12.17875313	     -8.95084500	      6.53425076	     -4.75905528	     -0.16036412
      2.82000000	    -10.94722722	      3.74680796	      0.37246325	     -2.18432566	     -0.01203816	     -0.30275764	     31.21711131	     -8.24357827	     -7.96392474	    -59.01789394	    -10.31278441	    -13.12364724	     32.65349504	     15.16116314	      6.66412728	     -1.23628610	    -16.56090120	      5.19753883	    -12.13250832	     -9.00180681	      6.45912922	     -4.55024111	     -0.48529673
      2.82500000	    -10.98370156	      3.57031697	      0.55858811	     -2.17757539	     -0.01170791	     -0.30328073	     31.83210514	     -8.00049231	     -8.03272469	    -58.16674447	     -9.96533162	    -13.06061074	     32.71769924	     14.55384638	      6.55976235	     -1.02728536	    -16.16399879	      5.38053547	    -12.09793508	     -9.02354403	      6.42677333	     -4.36649841	     -0.71911187
      2.83000000	    -10.99632143	      3.39641779	      0.79501294	     -2.17083705	     -0.01140623	     -0.30385083	     32.37903336	     -7.79760463	     -8.14334886	    -57.24054323	     -9.66380223	    -12.96994152	     32.76841955	     13.92849992	      6.46269932	     -0.80453248	    -15.77717206	      5.55666278	    -12.01976092	     -9.05017213	      6.36151722	     -4.18922969	     -1.05466474
      2.83500000	    -10.96582753	      3.25140826	      1.06466914	     -2.16411913	     -0.01111683	     -0.30441075	     32.84755549	     -7.64998215	     -8.27533380	    -56.24651079	     -9.43745933	    -12.89950669	     32.80005676	     13.25769393	      6.39248497	     -0.58163290	    -15.38846447	      5.71908998	    -11.89598351	     -9.11109919	      6.24263173	     -4.05491725	     -1.44451964
      2.84000000	    -10.97593836	      3.12516321	      1.27914455	     -2.15738900	     -0.01097727	     -0.30489317	     33.35579203	     -7.49229995	     -8.34200718	    -55.20372942	     -9.26933343	    -12.84696608	     32.79252614	     12.62967364	      6.32230717	     -0.42325243	    -14.99700832	      5.90296739	    -11.78232638	     -9.16246150	      6.17785540	     -3.92535370	     -1.75455879
      2.84500000	    -10.98029861	      3.01180793	      1.50058608	     -2.15066373	     -0.01092607	     -0.30534783	     33.83293936	     -7.35733258	     -8.41179255	    -54.10665288	     -9.12869769	    -12.79411107	     32.75036851	     11.99949635	      6.25820312	     -0.28794957	    -14.61305153	      6.11807449	    -11.63397655	     -9.20772783	      6.10271992	     -3.81401111	     -2.08136832
